<mxfile host="Electron" modified="2023-06-30T21:05:57.859Z" agent="Mozilla/5.0 (Windows NT 10.0; Win64; x64) AppleWebKit/537.36 (KHTML, like Gecko) draw.io/21.1.2 Chrome/106.0.5249.199 Electron/21.4.3 Safari/537.36" etag="t_bJxqcGxLqqVTfCRXOx" version="21.1.2" type="device">
  <diagram id="C5RBs43oDa-KdzZeNtuy" name="Page-1">
    <mxGraphModel dx="1036" dy="614" grid="1" gridSize="10" guides="1" tooltips="1" connect="1" arrows="1" fold="1" page="1" pageScale="1" pageWidth="827" pageHeight="1169" math="0" shadow="0">
      <root>
        <mxCell id="WIyWlLk6GJQsqaUBKTNV-0" />
        <mxCell id="WIyWlLk6GJQsqaUBKTNV-1" parent="WIyWlLk6GJQsqaUBKTNV-0" />
        <mxCell id="61_WRDxVaNvenf14IvHh-118" value="&lt;font style=&quot;font-size: 11.29px;&quot; face=&quot;calibri&quot;&gt;start&lt;/font&gt;" style="ellipse;whiteSpace=wrap;html=1;fillColor=#dae8fc;strokeColor=#6c8ebf;" parent="WIyWlLk6GJQsqaUBKTNV-1" vertex="1">
          <mxGeometry x="90" y="60" width="120" height="50" as="geometry" />
        </mxCell>
        <mxCell id="61_WRDxVaNvenf14IvHh-123" value="" style="endArrow=classic;html=1;rounded=0;exitX=0.5;exitY=1;exitDx=0;exitDy=0;entryX=0.5;entryY=0;entryDx=0;entryDy=0;" parent="WIyWlLk6GJQsqaUBKTNV-1" source="61_WRDxVaNvenf14IvHh-118" target="61_WRDxVaNvenf14IvHh-133" edge="1">
          <mxGeometry width="50" height="50" relative="1" as="geometry">
            <mxPoint x="150" y="180" as="sourcePoint" />
            <mxPoint x="150" y="210" as="targetPoint" />
          </mxGeometry>
        </mxCell>
        <mxCell id="61_WRDxVaNvenf14IvHh-125" value="&lt;font face=&quot;calibri&quot;&gt;&lt;b&gt;void APP_init (void )&lt;/b&gt;&lt;/font&gt;" style="text;html=1;align=center;verticalAlign=middle;resizable=0;points=[];autosize=1;strokeColor=none;fillColor=none;" parent="WIyWlLk6GJQsqaUBKTNV-1" vertex="1">
          <mxGeometry x="250" y="60" width="120" height="30" as="geometry" />
        </mxCell>
        <mxCell id="61_WRDxVaNvenf14IvHh-141" value="" style="edgeStyle=orthogonalEdgeStyle;rounded=0;orthogonalLoop=1;jettySize=auto;html=1;entryX=0.5;entryY=0;entryDx=0;entryDy=0;" parent="WIyWlLk6GJQsqaUBKTNV-1" source="61_WRDxVaNvenf14IvHh-133" target="61_WRDxVaNvenf14IvHh-180" edge="1">
          <mxGeometry relative="1" as="geometry">
            <mxPoint x="150.05882352941194" y="300" as="targetPoint" />
          </mxGeometry>
        </mxCell>
        <mxCell id="61_WRDxVaNvenf14IvHh-133" value="&lt;div style=&quot;&quot;&gt;&lt;span style=&quot;font-size: 11.29px; font-family: calibri; background-color: initial;&quot;&gt;LED_init(RED_LED)&lt;br&gt;LED_init(GREEN_LED)&lt;/span&gt;&lt;/div&gt;&lt;div style=&quot;&quot;&gt;&lt;span style=&quot;font-size: 11.29px; font-family: calibri; background-color: initial;&quot;&gt;LED_init(BLUE_LED)&lt;br&gt;BTN_init(SW1)&amp;nbsp;&lt;/span&gt;&lt;/div&gt;" style="rounded=0;whiteSpace=wrap;html=1;fillColor=#d5e8d4;strokeColor=#82b366;" parent="WIyWlLk6GJQsqaUBKTNV-1" vertex="1">
          <mxGeometry x="40" y="130" width="220" height="100" as="geometry" />
        </mxCell>
        <mxCell id="61_WRDxVaNvenf14IvHh-180" value="&lt;font style=&quot;font-size: 11.29px;&quot; face=&quot;calibri&quot;&gt;end&lt;/font&gt;" style="ellipse;whiteSpace=wrap;html=1;fillColor=#dae8fc;strokeColor=#6c8ebf;" parent="WIyWlLk6GJQsqaUBKTNV-1" vertex="1">
          <mxGeometry x="90" y="250" width="120" height="50" as="geometry" />
        </mxCell>
      </root>
    </mxGraphModel>
  </diagram>
</mxfile>
